<mxfile host="app.diagrams.net" modified="2024-04-19T09:48:00.533Z" agent="Mozilla/5.0 (X11; Linux x86_64) AppleWebKit/537.36 (KHTML, like Gecko) Chrome/121.0.0.0 Safari/537.36" version="24.2.5" etag="vYCGvx6vgY32h3gu9nsM" type="github">
  <diagram name="Page-1" id="3mQUBtHJLJckmQAXTngQ">
    <mxGraphModel>
      <root>
        <mxCell id="0" />
        <mxCell id="1" parent="0" />
      </root>
    </mxGraphModel>
  </diagram>
</mxfile>
